<?xml version="1.0" encoding="UTF-8"?>
<svg version="1.1" xmlns="http://www.w3.org/2000/svg" width="1024" height="1024">
<path d="M0 0 C337.92 0 675.84 0 1024 0 C1024 337.92 1024 675.84 1024 1024 C686.08 1024 348.16 1024 0 1024 C0 686.08 0 348.16 0 0 Z " fill="#FEFEFE" transform="translate(0,0)"/>
<path d="M0 0 C0.69633545 0.30760254 1.3926709 0.61520508 2.11010742 0.93212891 C26.85349619 12.22430065 51.75270061 34.45511302 62.5 60 C62.07082937 63.45077949 60.67051053 65.27973121 58.36186218 67.81358337 C57.72841574 68.51133818 57.09496929 69.20909298 56.4423275 69.92799187 C53.57290827 72.98898955 50.66617475 76.00519672 47.71020508 78.98266602 C47.07187241 79.62917618 46.43353973 80.27568634 45.77586365 80.94178772 C43.6933861 83.04878932 41.60703477 85.15188453 39.51953125 87.25390625 C38.80279425 87.97596693 38.08605724 88.69802761 37.34760094 89.44196892 C33.56606703 93.25006732 29.78098014 97.05459709 25.9934082 100.85668945 C22.86039958 104.00312304 19.73485403 107.15670133 16.61547852 110.31665039 C12.83830087 114.14293591 9.04919096 117.95699718 5.25095177 121.76237297 C3.80696753 123.2130899 2.36725739 124.66807387 0.9318943 126.12732124 C-1.06672633 128.15733686 -3.08030225 130.17124628 -5.09838867 132.18188477 C-5.690159 132.79006042 -6.28192932 133.39823608 -6.89163208 134.02484131 C-8.56047058 135.66847229 -8.56047058 135.66847229 -11.5 138 C-15.66667738 137.53421876 -17.54593393 135.28670881 -20.4140625 132.34375 C-21.33960938 131.40402344 -22.26515625 130.46429688 -23.21875 129.49609375 C-24.18790988 128.49779359 -25.15665532 127.49909092 -26.125 126.5 C-28.03030208 124.54855093 -29.94046745 122.60204371 -31.8515625 120.65625 C-33.11734131 119.35397461 -33.11734131 119.35397461 -34.40869141 118.02539062 C-36.78235707 115.72654282 -37.89767866 115.11472787 -41.125 114.5 C-46.29588783 115.26605746 -48.88141482 118.40097474 -52.5 122 C-53.32886719 122.8146875 -54.15773437 123.629375 -55.01171875 124.46875 C-57.19065274 126.63058089 -59.35211984 128.80737234 -61.5 131 C-77.29850567 124.05715894 -87.36915722 102.23109997 -93.66015625 87.234375 C-95.81467488 81.34201707 -96.51912864 75.96927574 -94.03125 70.01953125 C-93.37119362 68.60909323 -92.69329669 67.20689934 -92 65.8125 C-91.6390625 65.0692749 -91.278125 64.3260498 -90.90625 63.56030273 C-87.63976636 56.98834747 -83.85240906 50.91238141 -79.5 45 C-78.92121094 44.19820313 -78.34242188 43.39640625 -77.74609375 42.5703125 C-67.95552726 29.67129401 -56.08616658 18.74309779 -42.5 10 C-41.52804688 9.36707031 -40.55609375 8.73414063 -39.5546875 8.08203125 C-33.80508791 4.53357265 -27.82287951 1.6628863 -21.625 -1 C-20.55415161 -1.47312622 -20.55415161 -1.47312622 -19.46166992 -1.95581055 C-12.14001592 -4.97303707 -7.07935617 -3.12770478 0 0 Z " fill="#51C232" transform="translate(217.5,368)"/>
<path d="M0 0 C16.5 0 33 0 50 0 C50 15.84 50 31.68 50 48 C44.60701041 46.92140208 42.74642893 45.24351078 39.1875 41.4375 C38.43436523 40.65729492 38.43436523 40.65729492 37.66601562 39.86132812 C36.43470873 38.5831143 35.2160593 37.29272853 34 36 C30.8794002 37.3862943 28.75854373 38.99291088 26.35229492 41.40478516 C25.65444382 42.09955963 24.95659271 42.79433411 24.2375946 43.51016235 C23.49274307 44.2621994 22.74789154 45.01423645 21.98046875 45.7890625 C21.20367264 46.56631683 20.42687653 47.34357117 19.62654114 48.14437866 C17.98262367 49.79131673 16.34113687 51.44068405 14.7019043 53.09228516 C12.21252907 55.59978866 9.71537425 58.0993256 7.21679688 60.59765625 C5.61671739 62.20265647 4.01709352 63.80811106 2.41796875 65.4140625 C1.67918991 66.15395416 0.94041107 66.89384583 0.179245 67.65615845 C-0.52806259 68.36984589 -1.23537018 69.08353333 -1.96411133 69.81884766 C-2.57603836 70.43458649 -3.18796539 71.05032532 -3.81843567 71.6847229 C-5.63675622 73.61449223 -7.36317306 75.57929218 -9.08868408 77.59066772 C-13.69085184 82.87450531 -18.65524215 87.78751443 -23.61694336 92.73046875 C-24.67236472 93.78560747 -25.72756481 94.84096757 -26.78256226 95.89653015 C-29.62486458 98.73911743 -32.47022253 101.57862766 -35.31617045 104.41756439 C-38.29816054 107.39327049 -41.27728758 110.37184021 -44.25672913 113.35009766 C-49.88916976 118.97943978 -55.52415289 124.6062296 -61.16007096 130.23209 C-67.58047793 136.6412897 -73.99801946 143.05335532 -80.41533077 149.46565437 C-93.60705144 162.6469442 -106.80233743 175.8246596 -120 189 C-123.93780383 187.18498393 -126.5453843 184.63040299 -129.5 181.51953125 C-130.56207186 180.42731789 -131.62458512 179.3355336 -132.6875 178.24414062 C-134.35172098 176.52396909 -136.01173269 174.80020443 -137.6640625 173.06860352 C-139.26502175 171.39532605 -140.8810835 169.73791456 -142.5 168.08203125 C-142.99177734 167.55817337 -143.48355469 167.03431549 -143.99023438 166.49458313 C-145.53022527 164.87380538 -145.53022527 164.87380538 -148 163 C-151.46233338 163.30595097 -153.16061041 164.78940887 -155.5559082 167.19946289 C-156.23373856 167.87429214 -156.91156891 168.5491214 -157.60993958 169.24440002 C-158.6944062 170.34738686 -158.6944062 170.34738686 -159.80078125 171.47265625 C-160.55538132 172.22912949 -161.30998138 172.98560272 -162.08744812 173.76499939 C-163.68543004 175.36970709 -165.27980833 176.97801013 -166.87084961 178.58959961 C-169.28585467 181.03551365 -171.71113076 183.47083072 -174.13867188 185.90429688 C-175.69332802 187.4681342 -177.24738349 189.03256894 -178.80078125 190.59765625 C-179.51768631 191.31881119 -180.23459137 192.03996613 -180.97322083 192.78297424 C-185.01832249 196.88462216 -188.90006295 201.08214706 -192.65934753 205.44773865 C-193.41387324 206.32135886 -194.18375208 207.18375208 -195 208 C-197.6662603 208.08855161 -200.30647114 208.11524673 -202.97265625 208.09765625 C-203.77029892 208.0962413 -204.56794159 208.09482635 -205.38975525 208.09336853 C-207.94737435 208.08775316 -210.50490718 208.07519812 -213.0625 208.0625 C-214.79231645 208.05748698 -216.52213426 208.05292373 -218.25195312 208.04882812 C-222.50133553 208.03777875 -226.75065312 208.02050386 -231 208 C-231 203.82967957 -229.34497809 202.84862799 -226.51049805 199.82910156 C-226.02171771 199.30716343 -225.53293737 198.7852253 -225.02934551 198.24747086 C-218.11937533 190.92522155 -210.96323615 183.83971955 -203.83203125 176.734375 C-202.30053567 175.20474919 -200.7692642 173.67489898 -199.23820496 172.14483643 C-195.24732938 168.15774208 -191.25345797 164.17366235 -187.25891113 160.19024658 C-183.16750474 156.10914986 -179.07899951 152.02514888 -174.99023438 147.94140625 C-166.99629371 139.9581252 -158.99917864 131.97803239 -151 124 C-147.59780091 125.62840299 -144.83178943 127.48285384 -142 130 C-142 130.66 -142 131.32 -142 132 C-141.41283203 132.2575708 -140.82566406 132.5151416 -140.22070312 132.78051758 C-137.81415948 134.10205292 -136.33628855 135.50845792 -134.46875 137.51171875 C-133.82292969 138.18654297 -133.17710937 138.86136719 -132.51171875 139.55664062 C-131.16471191 140.98342166 -129.8235947 142.41578493 -128.48828125 143.85351562 C-127.84246094 144.52447266 -127.19664062 145.19542969 -126.53125 145.88671875 C-125.94923828 146.50764404 -125.36722656 147.12856934 -124.76757812 147.76831055 C-123.1164078 149.18942195 -123.1164078 149.18942195 -121.2327919 148.8976984 C-118.00348102 147.59934757 -115.90570553 145.30821512 -113.50775146 142.86851501 C-112.69408155 142.05869001 -112.69408155 142.05869001 -111.86397386 141.2325049 C-110.04501094 139.4184902 -108.23698955 137.59394794 -106.42871094 135.76928711 C-105.12828918 134.46801931 -103.82720681 133.16741141 -102.5255127 131.86741638 C-98.99018713 128.33295307 -95.46420032 124.78930307 -91.93978405 121.24396586 C-88.25624739 117.54170082 -84.5642378 113.8479054 -80.87310791 110.1532135 C-73.88318665 103.1539605 -66.90094916 96.14709388 -59.92142129 89.13747841 C-51.97575902 81.15830732 -44.02159686 73.1876328 -36.0666995 65.21767032 C-19.70163904 48.82123525 -3.34731369 32.41412739 13 16 C12.0451214 14.87714854 11.08898692 13.75536501 10.13232422 12.6340332 C9.6000119 12.00922562 9.06769958 11.38441803 8.51925659 10.74067688 C6.26682859 8.15997434 3.80631382 5.83194619 1.3203125 3.48046875 C0 2 0 2 0 0 Z " fill="#51C232" transform="translate(326,368)"/>
<path d="M0 0 C8.25 0 16.5 0 25 0 C25 42.9 25 85.8 25 130 C17.08 130 9.16 130 1 130 C0.67 126.37 0.34 122.74 0 119 C-0.433125 119.70125 -0.86625 120.4025 -1.3125 121.125 C-6.30519436 126.46602187 -13.63797119 130.53100846 -21.02368164 131.17700195 C-34.951191 131.57647685 -46.24847467 130.83844462 -57 121 C-67.04115711 111.46194888 -70.93815239 99.43136788 -71.375 85.875 C-71.14741887 71.69385059 -66.9269925 59.18391525 -57.25 48.6875 C-47.67648644 39.62652636 -35.95470572 37.38178657 -23.23828125 37.69140625 C-12.79082061 38.25105017 -7.97297801 42.02364424 0 49 C0 32.83 0 16.66 0 0 Z " fill="#0185E7" transform="translate(715,375)"/>
<path d="M0 0 C0.09353858 24.19175527 0.16402591 48.38348335 0.20724869 72.57538319 C0.2278533 83.8086992 0.25593377 95.0419027 0.30175781 106.27514648 C0.34168985 116.06871976 0.36744808 125.86221152 0.37635398 135.65586394 C0.38155792 140.83912258 0.39374536 146.02214806 0.42292023 151.2053318 C0.45018991 156.08988939 0.45842171 160.97411909 0.45243073 165.85874557 C0.45352581 167.64569446 0.46141057 169.43265498 0.4768219 171.21953773 C0.57306105 182.95982526 0.4148852 194.56422395 -8.26855469 203.57885742 C-15.42571353 209.45333876 -23.17116684 209.5167913 -32.0625 209.25 C-33.21427734 209.23195313 -34.36605469 209.21390625 -35.55273438 209.1953125 C-38.36937834 209.14856322 -41.18423229 209.08305157 -44 209 C-45.01515943 188.10415218 -45.76768691 167.21247932 -46.22792339 146.29678631 C-46.44756789 136.57824593 -46.74639821 126.87534721 -47.24389648 117.16674805 C-50.80734551 46.27783042 -50.80734551 46.27783042 -31.41658115 24.82327366 C-7.97861195 0 -7.97861195 0 0 0 Z " fill="#0086E7" transform="translate(357,424)"/>
<path d="M0 0 C1.09393066 0.00757324 2.18786133 0.01514648 3.31494141 0.02294922 C20.16169039 0.36421857 34.13154924 5.4050862 46.51171875 17.0546875 C54.75 25.82493455 54.75 25.82493455 54.75 30.4375 C51.4621022 32.27765498 48.16908674 34.10845047 44.875 35.9375 C43.93785156 36.46214844 43.00070312 36.98679687 42.03515625 37.52734375 C41.13925781 38.02363281 40.24335938 38.51992188 39.3203125 39.03125 C38.49289551 39.49208984 37.66547852 39.95292969 36.81298828 40.42773438 C34.75 41.4375 34.75 41.4375 32.75 41.4375 C30.57796 38.47562728 28.91438003 35.93064009 27.75 32.4375 C25.95496849 31.33859569 25.95496849 31.33859569 23.75 30.4375 C22.56083984 29.81681641 22.56083984 29.81681641 21.34765625 29.18359375 C20.51105469 28.75175781 19.67445313 28.31992187 18.8125 27.875 C17.97847656 27.44058594 17.14445312 27.00617188 16.28515625 26.55859375 C7.37490765 22.61831432 -5.90921551 23.11320392 -15.01171875 26.40234375 C-24.40437093 30.74624048 -30.38778661 36.7534256 -34.625 46.1875 C-38.72935819 58.46622848 -37.55266096 73.51048381 -31.99609375 85.0390625 C-27.4182052 93.4963062 -21.21214309 98.22465625 -12.25 101.4375 C-1.77164057 104.08035442 11.25311551 103.84247928 20.75 98.4375 C28.34731927 93.26941762 30.37903777 89.17942446 34.75 80.4375 C23.53 80.4375 12.31 80.4375 0.75 80.4375 C0.75 73.5075 0.75 66.5775 0.75 59.4375 C20.55 59.4375 40.35 59.4375 60.75 59.4375 C60.75 73.57093765 60.75 73.57093765 59.1875 79.8125 C58.92296021 80.88576538 58.92296021 80.88576538 58.65307617 81.98071289 C54.53908606 97.53183679 45.52243984 110.84069042 31.75 119.4375 C15.62475258 127.45746433 -3.52293516 129.45139262 -21.0625 124.875 C-38.83797306 118.66665463 -50.3175095 107.16539786 -58.6328125 90.69921875 C-65.47708198 74.80530408 -65.74985831 54.95436705 -59.66015625 38.8203125 C-55.91765336 29.84245239 -51.07861536 23.3972057 -44.25 16.4375 C-43.70730469 15.8703125 -43.16460937 15.303125 -42.60546875 14.71875 C-31.29486907 3.95220449 -15.15844496 -0.14780716 0 0 Z " fill="#0185E7" transform="translate(469.25,379.5625)"/>
<path d="M0 0 C0.33 0 0.66 0 1 0 C1 49.5 1 99 1 150 C-13.19 150 -27.38 150 -42 150 C-42.97862115 136.82116475 -43.78283432 123.65982743 -44.30820179 110.45499897 C-44.55878683 104.31815207 -44.87574436 98.20223451 -45.36401367 92.0793457 C-48.63776926 50.06347563 -48.63776926 50.06347563 -37.18438816 35.26398563 C-29.12825881 25.87315184 -19.84317704 17.83587445 -10.0488739 10.31340027 C-6.12827982 7.25727006 -3.1493036 3.83425186 0 0 Z " fill="#0086E7" transform="translate(297,483)"/>
<path d="M0 0 C5.40558209 4.14707628 8.61072706 9.85446575 12.01171875 15.6640625 C9.01370011 18.06813405 5.99146912 19.78890436 2.51171875 21.4140625 C1.57328125 21.86265625 0.63484375 22.31125 -0.33203125 22.7734375 C-3.18737737 23.73081826 -4.29260996 23.95983582 -6.98828125 22.6640625 C-8.33984375 20.9921875 -8.33984375 20.9921875 -9.61328125 18.9140625 C-13.70856972 13.09499189 -20.05585689 9.99617542 -26.98828125 8.6640625 C-36.32846184 7.98102208 -43.47200245 9.2421843 -51.2265625 14.54296875 C-52.98828125 15.6640625 -52.98828125 15.6640625 -55.98828125 16.6640625 C-57.10818017 18.51265349 -57.10818017 18.51265349 -57.98828125 20.6640625 C-58.31828125 21.26605469 -58.64828125 21.86804688 -58.98828125 22.48828125 C-64.51722034 32.79024979 -65.57275576 44.04266705 -62.80078125 55.4140625 C-60.10093335 64.10107311 -55.91989954 70.05165404 -47.98828125 74.6640625 C-40.43338657 78.39922498 -32.09677564 78.94611708 -23.953125 76.90234375 C-14.47844603 73.67610717 -10.18301469 69.01847916 -4.98828125 60.6640625 C0.71216101 62.92359394 6.38815244 65.21903367 12.01171875 67.6640625 C8.84796721 78.43663651 1.74324833 86.28534058 -7.98828125 91.6640625 C-20.90961603 97.73486203 -36.95331921 99.38746021 -50.73828125 95.0390625 C-52.51381873 94.30646251 -54.2671353 93.51664254 -55.98828125 92.6640625 C-56.84164063 92.2515625 -57.695 91.8390625 -58.57421875 91.4140625 C-71.84603963 84.22686104 -79.69192343 73.12833934 -84.15234375 58.96875 C-87.76314733 43.34320396 -85.8551259 26.60311172 -77.73828125 12.9140625 C-69.29359033 0.47961294 -58.1959095 -6.44092782 -43.6328125 -9.89453125 C-27.84008431 -12.53054053 -13.10162339 -8.8030554 0 0 Z " fill="#4FC12F" transform="translate(488.98828125,534.3359375)"/>
<path d="M0 0 C9.47576784 6.64372444 14.96165043 15.42863297 17.765625 26.64453125 C17.765625 31.26453125 17.765625 35.88453125 17.765625 40.64453125 C-1.374375 40.64453125 -20.514375 40.64453125 -40.234375 40.64453125 C-37.24651089 49.60812357 -35.40505374 53.45443959 -27.234375 57.64453125 C-21.26810012 59.83216537 -15.25224435 58.73771236 -9.421875 56.71875 C-7.03966008 55.54891231 -5.59206521 54.2112225 -3.734375 52.33203125 C-1.7021661 50.43153959 -0.85969567 49.65793098 1.953125 49.59765625 C6.79158761 50.61111801 11.30216799 52.5552535 15.765625 54.64453125 C11.55819859 63.2346935 4.80189978 69.33436809 -4.234375 72.64453125 C-14.83526168 75.74859638 -27.89606855 76.90874062 -38.06640625 71.90234375 C-38.78183594 71.48726562 -39.49726562 71.0721875 -40.234375 70.64453125 C-41.41580078 69.99097656 -41.41580078 69.99097656 -42.62109375 69.32421875 C-52.17852042 63.54237055 -57.16136489 55.00567201 -59.8203125 44.28125 C-61.71103596 32.24126567 -60.61678382 19.39178154 -53.421875 9.20703125 C-40.19660124 -6.49798135 -17.87243961 -10.84219676 0 0 Z " fill="#50C230" transform="translate(782.234375,556.35546875)"/>
<path d="M0 0 C5.23963741 3.82998877 8.77585489 10.65021348 10.0390625 16.9375 C10.12517104 18.83142903 10.15678232 20.72814257 10.15258789 22.62402344 C10.15247459 24.33534454 10.15247459 24.33534454 10.15235901 26.08123779 C10.14719772 27.30739807 10.14203644 28.53355835 10.13671875 29.796875 C10.1353038 31.05638977 10.13388885 32.31590454 10.13243103 33.61358643 C10.12778323 36.95415119 10.11880531 40.29464721 10.10772705 43.63519287 C10.09747848 47.0471538 10.09292604 50.45912185 10.08789062 53.87109375 C10.07686213 60.55991725 10.05959774 67.24869921 10.0390625 73.9375 C4.4290625 73.9375 -1.1809375 73.9375 -6.9609375 73.9375 C-7.4559375 69.9775 -7.4559375 69.9775 -7.9609375 65.9375 C-8.3734375 66.33582031 -8.7859375 66.73414063 -9.2109375 67.14453125 C-17.24274791 74.51300018 -25.03748945 75.82239576 -35.68359375 75.40625 C-42.9322099 74.82597386 -49.17665823 72.13406678 -53.9921875 66.60546875 C-58.80350622 59.58139732 -59.55203449 54.43591339 -58.9609375 45.9375 C-57.2176668 40.40005188 -53.69837809 37.08496329 -48.9609375 33.9375 C-41.27366144 30.40358075 -33.34331399 28.89658271 -25.0234375 27.6875 C-23.91419922 27.51476562 -22.80496094 27.34203125 -21.66210938 27.1640625 C-17.3624221 26.50857478 -13.31852781 25.9375 -8.9609375 25.9375 C-10.07501601 18.44576913 -10.07501601 18.44576913 -14.9609375 12.9375 C-20.59777113 11.05855546 -26.71930924 11.19029058 -32.3359375 13.0625 C-35.19204391 14.87098664 -35.19204391 14.87098664 -37.1484375 18.1875 C-39.9609375 20.9375 -39.9609375 20.9375 -42.5078125 21.13671875 C-45.36788484 20.87776625 -48.13884584 20.46561072 -50.9609375 19.9375 C-52.1778125 19.751875 -53.3946875 19.56625 -54.6484375 19.375 C-55.793125 19.1584375 -55.793125 19.1584375 -56.9609375 18.9375 C-56.64694698 12.81468479 -53.84461917 8.49021927 -49.9609375 3.9375 C-36.50787186 -7.9237907 -15.42500141 -8.35776969 0 0 Z " fill="#4FC12F" transform="translate(569.9609375,556.0625)"/>
<path d="M0 0 C0 29.37 0 58.74 0 89 C-14.52 89 -29.04 89 -44 89 C-44 66.23 -44 43.46 -44 20 C-37 26 -37 26 -34.8125 28.4375 C-33.9153125 29.2109375 -33.9153125 29.2109375 -33 30 C-29.72978421 29.62362292 -28.19480693 28.52965424 -26.0390625 26.11328125 C-25.49145264 25.5107251 -24.94384277 24.90816895 -24.37963867 24.28735352 C-23.80060791 23.63565186 -23.22157715 22.9839502 -22.625 22.3125 C-21.3862494 20.95117933 -20.1452992 19.59185751 -18.90234375 18.234375 C-18.26409668 17.53634766 -17.62584961 16.83832031 -16.96826172 16.11914062 C-13.78407972 12.69087223 -10.49631972 9.37002956 -7.1875 6.0625 C-6.28088623 5.1494812 -6.28088623 5.1494812 -5.35595703 4.21801758 C-1.12508897 0 -1.12508897 0 0 0 Z " fill="#0086E7" transform="translate(238,544)"/>
<path d="M0 0 C4.5017713 3.67249764 8.49016033 7.31423381 9.6875 13.1875 C7.42041675 14.0530047 5.14974921 14.90509315 2.875 15.75 C2.23240234 15.99685547 1.58980469 16.24371094 0.92773438 16.49804688 C-3.97265625 18.30078125 -3.97265625 18.30078125 -7.3125 17.1875 C-8.97916667 15.1875 -10.64583333 13.1875 -12.3125 11.1875 C-15.4890511 10.12864963 -17.91238011 9.98700734 -21.25 9.9375 C-22.29027344 9.91171875 -23.33054687 9.8859375 -24.40234375 9.859375 C-27.68185667 10.22914558 -29.02759315 10.83237143 -31.3125 13.1875 C-31.97916667 16.6875 -31.97916667 16.6875 -31.3125 20.1875 C-28.51150509 22.87201947 -26.00812361 23.70462159 -22.2421875 24.3984375 C-21.2625 24.59179688 -20.2828125 24.78515625 -19.2734375 24.984375 C-17.24019993 25.36528533 -15.20635496 25.74296968 -13.171875 26.1171875 C-3.56452258 28.0236073 5.0372267 30.80322349 10.6875 39.1875 C12.73150161 45.31950483 12.93589327 53.61989336 10.78125 59.77734375 C6.58321144 66.78752993 0.72857929 70.88768057 -6.91796875 73.4609375 C-19.2491456 76.10029181 -32.16210143 75.04868758 -43.0625 68.5625 C-47.62633083 65.31999142 -50.95327544 61.27602355 -53.3125 56.1875 C-53.3125 54.8675 -53.3125 53.5475 -53.3125 52.1875 C-51.06506955 51.65568825 -48.81442898 51.13742874 -46.5625 50.625 C-45.30953125 50.33496094 -44.0565625 50.04492188 -42.765625 49.74609375 C-37.95179821 48.96738647 -37.95179821 48.96738647 -35.3125 50.1875 C-34.8484375 51.3940625 -34.8484375 51.3940625 -34.375 52.625 C-33.54903144 55.39826481 -33.54903144 55.39826481 -30.875 56.4375 C-30.029375 56.685 -29.18375 56.9325 -28.3125 57.1875 C-26.8275 57.6825 -26.8275 57.6825 -25.3125 58.1875 C-18.87068634 58.77311942 -14.03039922 58.22893575 -8.3125 55.1875 C-7.10688816 54.20482141 -7.10688816 54.20482141 -7.21484375 52.33984375 C-7.22644531 51.60894531 -7.23804688 50.87804687 -7.25 50.125 C-7.270625 48.825625 -7.29125 47.52625 -7.3125 46.1875 C-13.47409459 42.60445508 -20.05980574 41.59841911 -26.99414062 40.2578125 C-36.27278554 38.31651308 -43.83310935 35.15752277 -49.3125 27.1875 C-51.82359521 21.87352739 -51.86618723 16.97140196 -51.3125 11.1875 C-50.0625 7.8125 -50.0625 7.8125 -48.3125 5.1875 C-47.796875 4.341875 -47.28125 3.49625 -46.75 2.625 C-35.1486583 -8.9763417 -13.02112817 -9.22128222 0 0 Z " fill="#4EC12F" transform="translate(917.3125,556.8125)"/>
<path d="M0 0 C4.23071789 3.32846802 7.63233245 7.12539033 10 12 C10 12.66 10 13.32 10 14 C7.73117913 14.83919398 5.46022973 15.67151724 3.1875 16.5 C2.54490234 16.73847656 1.90230469 16.97695313 1.24023438 17.22265625 C-1.64933739 18.27068746 -3.90076061 19 -7 19 C-8.34331654 17.00669158 -9.67594012 15.00615134 -11 13 C-14.26328842 10.81236122 -17.12708998 10.70202341 -21 10.6875 C-22.03125 10.67074219 -23.0625 10.65398438 -24.125 10.63671875 C-27.3648333 11.04609986 -28.73259413 11.67376993 -31 14 C-31.66666667 17.5 -31.66666667 17.5 -31 21 C-28.2571726 23.60797236 -25.82005541 24.50064376 -22.1484375 25.2109375 C-21.21386719 25.40429688 -20.27929688 25.59765625 -19.31640625 25.796875 C-17.37951047 26.17756634 -15.44202055 26.55524909 -13.50390625 26.9296875 C-5.74961258 28.54207141 2.53761131 30.83568469 8 36.9375 C11.54485391 42.36555755 12.89296547 47.53172449 12 54 C10.07759645 61.75044976 6.51852062 66.4735998 0 71 C-9.59471029 76.64394723 -22.68177628 76.39155228 -33.41015625 74.3515625 C-42.02248374 71.5171256 -48.61209652 65.89822627 -53 58 C-53.75 55.625 -53.75 55.625 -54 54 C-52.33633001 53.52466572 -50.67249598 53.04989765 -49.0078125 52.578125 C-47.10367143 52.02985092 -45.20776356 51.453216 -43.3125 50.875 C-40 50 -40 50 -36 50 C-34.66666667 52 -33.33333333 54 -32 56 C-26.78768112 59.81389187 -21.20145921 59.63719769 -15 59 C-11.95462387 58.40799168 -10.66359618 57.79503221 -8 56 C-6.58650231 52.60581779 -6.58650231 52.60581779 -7 49 C-9.75038854 45.51435908 -12.07679093 44.3776876 -16.359375 43.4375 C-17.39320313 43.19773437 -18.42703125 42.95796875 -19.4921875 42.7109375 C-20.56726563 42.47632813 -21.64234375 42.24171875 -22.75 42 C-41.32015607 37.88835961 -41.32015607 37.88835961 -46.375 31.5625 C-46.83648438 31.00691406 -47.29796875 30.45132813 -47.7734375 29.87890625 C-51.48884189 24.18747468 -51.7243034 18.61159001 -51 12 C-49.18005248 5.27310536 -44.89833616 1.4114701 -39 -2 C-27.68064809 -8.21041047 -10.63867514 -6.65334072 0 0 Z " fill="#4EC12E" transform="translate(646,556)"/>
<path d="M0 0 C0.85722656 -0.00257813 1.71445312 -0.00515625 2.59765625 -0.0078125 C4.9375 0.125 4.9375 0.125 7.9375 1.125 C8.05902487 8.86208326 7.78550767 16.432359 6.9375 24.125 C5.803125 24.15078125 4.66875 24.1765625 3.5 24.203125 C-9.15950451 24.30847682 -9.15950451 24.30847682 -19.5703125 30.69921875 C-25.2307289 37.89603388 -25.37827016 45.7144111 -25.4765625 54.52734375 C-25.49592865 55.60504532 -25.5152948 56.68274689 -25.5352478 57.79310608 C-25.59475755 61.2161583 -25.64131456 64.63924466 -25.6875 68.0625 C-25.72570608 70.39129025 -25.76475933 72.72006676 -25.8046875 75.04882812 C-25.90202103 80.74081167 -25.98181781 86.43265889 -26.0625 92.125 C-33.6525 92.125 -41.2425 92.125 -49.0625 92.125 C-49.0625 62.425 -49.0625 32.725 -49.0625 2.125 C-41.8025 2.125 -34.5425 2.125 -27.0625 2.125 C-25.85977181 4.53045638 -25.96178528 6.07496953 -26 8.75 C-26.00902344 9.56726563 -26.01804687 10.38453125 -26.02734375 11.2265625 C-26.03894531 11.85304688 -26.05054688 12.47953125 -26.0625 13.125 C-25.7325 12.795 -25.4025 12.465 -25.0625 12.125 C-17.65265907 5.0847272 -10.50647061 -0.03169373 0 0 Z " fill="#0185E7" transform="translate(590.0625,412.875)"/>
<path d="M0 0 C0.99 0.66 1.98 1.32 3 2 C3.2863593 4.69204148 3.37835144 7.15319556 3.34057617 9.84619141 C3.34123329 11.06094902 3.34123329 11.06094902 3.34190369 12.30024719 C3.33980914 14.98426194 3.31644717 17.66765652 3.29296875 20.3515625 C3.28737515 22.20958108 3.28310394 24.06760408 3.28010559 25.92562866 C3.26863819 30.82153489 3.2391548 35.71717512 3.20599365 40.61297607 C3.17533352 45.60653077 3.16160895 50.60012835 3.14648438 55.59375 C3.11428685 65.39595036 3.06306771 75.19795308 3 85 C-1.33310328 85.116965 -5.6657958 85.1875089 -10 85.25 C-11.22074219 85.28351563 -12.44148438 85.31703125 -13.69921875 85.3515625 C-21.8557834 85.43974158 -27.84091351 84.96298025 -33.98828125 79.10546875 C-34.42527344 78.47253906 -34.86226562 77.83960938 -35.3125 77.1875 C-35.76238281 76.56230469 -36.21226562 75.93710937 -36.67578125 75.29296875 C-42.46309837 65.27186212 -43.30851466 53.32740684 -41 42 C-38.5313244 37.02514131 -34.45298092 34.17592483 -30 31 C-29.34 30.01 -28.68 29.02 -28 28 C-27.34 28 -26.68 28 -26 28 C-25.78230957 27.45633789 -25.56461914 26.91267578 -25.34033203 26.35253906 C-23.54913222 23.20864082 -21.11723419 20.87052333 -18.5546875 18.359375 C-18.02481232 17.83232971 -17.49493713 17.30528442 -16.94900513 16.76226807 C-15.26232175 15.08674325 -13.56880436 13.41832278 -11.875 11.75 C-10.72740612 10.61244149 -9.58026539 9.47442564 -8.43359375 8.3359375 C-5.62761863 5.55196535 -2.81549536 2.7743424 0 0 Z " fill="#0085E7" transform="translate(176,548)"/>
<path d="M0 0 C5.94 0 11.88 0 18 0 C18 6.27 18 12.54 18 19 C23.94 19 29.88 19 36 19 C36 24.28 36 29.56 36 35 C30.06 35 24.12 35 18 35 C18.0971498 40.30233395 18.20001318 45.60392521 18.31738281 50.90576172 C18.35556522 52.70777715 18.39043651 54.50986601 18.421875 56.31201172 C18.46775963 58.90879481 18.52571435 61.5050771 18.5859375 64.1015625 C18.59748871 64.9017984 18.60903992 65.7020343 18.62094116 66.52651978 C18.73855552 71.0271617 19.19398964 74.79869231 21 79 C23.86797558 81.1322775 26.74407975 81.34821682 30.25 81.625 C32.60125 81.810625 32.60125 81.810625 35 82 C35 86.95 35 91.9 35 97 C26.59728935 99.10067766 16.58980313 99.4579859 8.796875 95.25390625 C2.89023183 91.13209656 0.62942468 85.74454165 -1 79 C-1.36510068 75.48813025 -1.3526 72.02376231 -1.29296875 68.49609375 C-1.28872391 67.5322023 -1.28447906 66.56831085 -1.28010559 65.57521057 C-1.26345681 62.52900985 -1.22583111 59.48349712 -1.1875 56.4375 C-1.1724353 54.35873359 -1.15875004 52.27995669 -1.14648438 50.20117188 C-1.11359864 45.13385384 -1.06191324 40.06704313 -1 35 C-5.29 35 -9.58 35 -14 35 C-14 29.72 -14 24.44 -14 19 C-9.38 19 -4.76 19 0 19 C0 12.73 0 6.46 0 0 Z " fill="#52C232" transform="translate(679,533)"/>
<path d="M0 0 C7.92 0 15.84 0 24 0 C24 29.7 24 59.4 24 90 C16.08 90 8.16 90 0 90 C0 60.3 0 30.6 0 0 Z " fill="#0084E7" transform="translate(607,415)"/>
<path d="M0 0 C6.51283177 3.84589011 9.2442252 9.59343769 11.53125 16.6171875 C13.56458016 24.5437288 11.80990066 32.07713483 8.2265625 39.328125 C5.06804453 44.35552384 0.89467635 47.56130254 -4.77734375 49.3125 C-12.23259574 50.17272138 -20.58037021 50.79433649 -27.171875 46.6328125 C-33.89785172 41.10147398 -37.14480021 35.09129283 -38.09375 26.421875 C-38.40884358 18.49371387 -37.31469687 11.37930511 -31.9765625 5.2421875 C-22.60311926 -3.45782389 -11.68576795 -5.33359932 0 0 Z " fill="#FCFDFE" transform="translate(705.77734375,435.6875)"/>
<path d="M0 0 C0.98484375 0.00902344 1.9696875 0.01804687 2.984375 0.02734375 C4.10585938 0.04474609 4.10585938 0.04474609 5.25 0.0625 C6.91413655 3.3907731 6.06867406 7.05983973 5.8125 10.6875 C5.76029297 11.48929688 5.70808594 12.29109375 5.65429688 13.1171875 C5.52451629 15.09929103 5.38790265 17.08094499 5.25 19.0625 C4.23679687 19.09988281 3.22359375 19.13726563 2.1796875 19.17578125 C0.82809061 19.24148388 -0.52347029 19.30792971 -1.875 19.375 C-2.54015625 19.39755859 -3.2053125 19.42011719 -3.890625 19.44335938 C-10.1446475 19.78058608 -14.13058211 21.40627716 -18.5 25.875 C-22.89669027 32.10364455 -23.07264149 37.90133321 -23.1640625 45.2734375 C-23.18342865 46.24157379 -23.2027948 47.20971008 -23.2227478 48.20718384 C-23.2822833 51.2838677 -23.3288247 54.36058951 -23.375 57.4375 C-23.41320373 59.52996377 -23.45225685 61.62241222 -23.4921875 63.71484375 C-23.58796345 68.83060396 -23.67209042 73.94643776 -23.75 79.0625 C-29.69 79.0625 -35.63 79.0625 -41.75 79.0625 C-41.75 53.3225 -41.75 27.5825 -41.75 1.0625 C-36.14 1.0625 -30.53 1.0625 -24.75 1.0625 C-23.16727399 2.64522601 -23.40264253 4.44284003 -23.1875 6.625 C-23.06181641 7.86443359 -23.06181641 7.86443359 -22.93359375 9.12890625 C-22.87300781 9.76699219 -22.81242188 10.40507813 -22.75 11.0625 C-22.275625 10.340625 -21.80125 9.61875 -21.3125 8.875 C-15.5114917 2.50803967 -8.45649546 -0.10067256 0 0 Z " fill="#4EC12F" transform="translate(854.75,550.9375)"/>
<path d="M0 0 C7.29965671 7.1861065 6.19515927 22.82062145 6.30200195 32.26586914 C6.30546631 33.56000732 6.30893066 34.85414551 6.3125 36.1875 C6.32059692 38.08520142 6.32059692 38.08520142 6.32885742 40.02124023 C6.22295142 53.77704858 6.22295142 53.77704858 2 58 C1.01 58 0.02 58 -1 58 C-1.70962891 56.69289063 -1.70962891 56.69289063 -2.43359375 55.359375 C-15.38256976 31.87524491 -32.63113971 14.16924198 -55.8203125 0.875 C-58.36923627 -0.62805087 -60.6899916 -2.16118734 -63 -4 C-44.68389969 -10.70101231 -17.15649372 -9.17378246 0 0 Z " fill="#4FC130" transform="translate(291,361)"/>
<path d="M0 0 C3.875 0.9375 3.875 0.9375 5.875 3.9375 C5.66338626 8.91042281 4.27365102 10.53884898 0.875 13.9375 C0.54001699 16.60584966 0.54001699 16.60584966 0.875 18.9375 C2.195 19.5975 3.515 20.2575 4.875 20.9375 C5 24.3125 5 24.3125 4.875 27.9375 C2.875 29.9375 2.875 29.9375 -1.0625 30.3125 C-4.81816081 30.24433919 -4.81816081 30.24433919 -7.125 27.9375 C-7.62 26.9475 -7.62 26.9475 -8.125 25.9375 C-10.06574861 26.21367533 -10.06574861 26.21367533 -12.125 26.9375 C-14.39710154 29.67736384 -14.39710154 29.67736384 -13.9375 32.375 C-13.27771855 34.9991748 -13.27771855 34.9991748 -11.5 36.9375 C-10.125 38.9375 -10.125 38.9375 -10.25 41.5625 C-11.125 43.9375 -11.125 43.9375 -14.125 45.9375 C-17.17814059 46.41243298 -19.20273241 46.53770589 -21.84765625 44.81640625 C-23.32542231 43.58318776 -24.73122346 42.26490623 -26.125 40.9375 C-27.775 42.2575 -29.425 43.5775 -31.125 44.9375 C-30.92123822 46.84334196 -30.92123822 46.84334196 -30.125 48.9375 C-29.444375 49.39125 -28.76375 49.845 -28.0625 50.3125 C-26.125 51.9375 -26.125 51.9375 -25.6875 54.9375 C-26.125 57.9375 -26.125 57.9375 -27.1875 59.8125 C-30.31252863 61.62703275 -32.59855518 61.43243962 -36.125 60.9375 C-38.375 58.4375 -38.375 58.4375 -40.125 55.9375 C-43.13295167 55.59240872 -43.13295167 55.59240872 -44.73046875 57.46875 C-45.51357422 58.44328125 -45.51357422 58.44328125 -46.3125 59.4375 C-47.10720703 60.41203125 -47.10720703 60.41203125 -47.91796875 61.40625 C-48.31628906 61.9115625 -48.71460938 62.416875 -49.125 62.9375 C-52.14302393 62.61122714 -53.72191281 62.32668764 -55.9375 60.1875 C-57.41322579 57.39138797 -57.73330524 56.05506435 -57.125 52.9375 C-55.45833333 51.27083333 -53.79166667 49.60416667 -52.125 47.9375 C-52.21652637 44.82560326 -53.35616251 43.59075623 -55.125 40.9375 C-55.5 37.9375 -55.5 37.9375 -55.125 34.9375 C-53.5 33 -53.5 33 -51.125 31.9375 C-47.77366084 32.07428935 -45.84824494 32.33479589 -43.25 34.5 C-42.87875 34.974375 -42.5075 35.44875 -42.125 35.9375 C-39.20982708 34.86348892 -37.34689824 34.15939824 -35.125 31.9375 C-35.125 30.9475 -35.125 29.9575 -35.125 28.9375 C-35.785 28.504375 -36.445 28.07125 -37.125 27.625 C-39.125 25.9375 -39.125 25.9375 -39.5 22.9375 C-39.125 19.9375 -39.125 19.9375 -37.125 16.9375 C-32.822683 16.36926945 -30.8118294 16.46987147 -27.1875 18.9375 C-26.1665625 19.9275 -26.1665625 19.9275 -25.125 20.9375 C-22.65 18.4625 -22.65 18.4625 -20.125 15.9375 C-21.14191438 13.6689987 -21.86420454 12.15000001 -23.8125 10.5625 C-25.125 8.9375 -25.125 8.9375 -24.9375 5.875 C-24.125 2.9375 -24.125 2.9375 -22.125 0.9375 C-18.75 0.5625 -18.75 0.5625 -15.125 0.9375 C-12.6875 2.9375 -12.6875 2.9375 -11.125 4.9375 C-8.02371285 4.20721972 -8.02371285 4.20721972 -6.4375 1.8125 C-3.78737074 -0.33625345 -3.25337319 -0.31180611 0 0 Z " fill="#FCFDFB" transform="translate(228.125,406.0625)"/>
<path d="M0 0 C2.24824885 2.84646711 3.96781502 5.71519587 5.625 8.9375 C11.40983538 19.61172941 17.99575773 28.5043621 26.8125 36.7578125 C29 39 29 39 30 42 C28.91796875 43.69140625 28.91796875 43.69140625 27.1875 45.5625 C26.54941406 46.25730469 25.91132813 46.95210937 25.25390625 47.66796875 C21.90378608 51.13421094 18.48910673 54.53177803 15.0390625 57.8984375 C12.95873909 59.83096046 12.95873909 59.83096046 12 62 C11.34 62 10.68 62 10 62 C9.67 62.99 9.34 63.98 9 65 C6.03 65.495 6.03 65.495 3 66 C-4.11607485 44.59745427 -7.79841033 21.88797522 0 0 Z " fill="#4FC230" transform="translate(114,468)"/>
<path d="M0 0 C4.30746475 2.23656823 7.52075882 4.80436107 10 9 C10.61313558 13.82844267 10.55410111 15.9328423 8.3125 20.25 C4.94570302 24.25375857 2.29360451 26.99363513 -2.9375 28 C-7.34196275 28.35667024 -9.62175157 26.84079981 -13 24 C-16.89240994 20.52839114 -17.8792278 18.47342089 -18.3125 13.1875 C-18.23976647 8.79116191 -16.94665267 6.33437012 -14 3 C-9.52576109 -0.05061744 -5.29042342 -0.95227622 0 0 Z " fill="#0284E7" transform="translate(623,374)"/>
<path d="M0 0 C7.02148518 4.06878819 7.97410036 8.35980109 10.625 16.3125 C-2.245 16.3125 -15.115 16.3125 -28.375 16.3125 C-27.30274075 8.80668527 -26.30575338 5.52551786 -20.3125 1 C-13.95506581 -2.65214305 -6.71264412 -3.1233316 0 0 Z " fill="#FDFEFC" transform="translate(770.375,567.6875)"/>
<path d="M0 0 C0.57007576 9.69128788 0.57007576 9.69128788 -3 14 C-8.75493757 19.30060039 -13.75858072 20.39557069 -21.3984375 20.26171875 C-24.59631067 19.94001079 -26.56930076 19.10660601 -29 17 C-30.42041821 14.15916359 -30.31452272 12.14522722 -30 9 C-26.51470299 3.69628715 -20.02137623 2.67374179 -14.1796875 1.37109375 C-9.41019105 0.44188668 -4.87986469 -0.26377647 0 0 Z " fill="#FBFDFB" transform="translate(561,595)"/>
<path d="M0 0 C5.61 0 11.22 0 17 0 C17 5.94 17 11.88 17 18 C22.94 18 28.88 18 35 18 C35 23.28 35 28.56 35 34 C29.06 34 23.12 34 17 34 C17 47.2 17 60.4 17 74 C16.67 74 16.34 74 16 74 C15.97535362 68.17928378 15.9571657 62.35859766 15.94506836 56.5378418 C15.94002733 54.55606559 15.93319462 52.57429311 15.92456055 50.5925293 C15.91248485 47.75047891 15.90676955 44.90847753 15.90234375 42.06640625 C15.89718246 41.17474258 15.89202118 40.28307892 15.88670349 39.36439514 C15.88650823 37.24259399 15.9378997 35.1208922 16 33 C17 32 17 32 20.59765625 31.90234375 C22.08596867 31.9090178 23.57426432 31.92097817 25.0625 31.9375 C25.82111328 31.94201172 26.57972656 31.94652344 27.36132812 31.95117188 C29.24091871 31.9629932 31.12046899 31.98092922 33 32 C33 28.04 33 24.08 33 20 C31.85660156 20.01160156 30.71320312 20.02320313 29.53515625 20.03515625 C28.04427246 20.04453288 26.55338691 20.05363321 25.0625 20.0625 C24.30775391 20.07087891 23.55300781 20.07925781 22.77539062 20.08789062 C20.85005687 20.09652441 18.92464419 20.05224333 17 20 C16 19 16 19 15.88647461 17.23413086 C15.89171143 16.48526611 15.89694824 15.73640137 15.90234375 14.96484375 C15.90556641 14.15595703 15.90878906 13.34707031 15.91210938 12.51367188 C15.92048828 11.66353516 15.92886719 10.81339844 15.9375 9.9375 C15.94201172 9.08349609 15.94652344 8.22949219 15.95117188 7.34960938 C15.96299627 5.23304337 15.98093231 3.11651315 16 1 C11.05 1 6.1 1 1 1 C1 6.61 1 12.22 1 18 C0.67 18 0.34 18 0 18 C0 12.06 0 6.12 0 0 Z " fill="#3DBB1D" transform="translate(680,534)"/>
<path d="M0 0 C1.485 0.99 1.485 0.99 3 2 C3.32279968 4.74612427 3.32279968 4.74612427 3.2487793 8.28564453 C3.23946381 8.92967224 3.23014832 9.57369995 3.22055054 10.23724365 C3.18612754 12.36963015 3.13024654 14.50089317 3.07421875 16.6328125 C3.04619149 18.1096659 3.01950045 19.58654522 2.99409485 21.06344604 C2.92357652 24.95346629 2.83486928 28.84286899 2.74243164 32.73242188 C2.63531962 37.39774543 2.5506925 42.0635239 2.46231842 46.72923279 C2.32548163 53.81998811 2.16000723 60.90955904 2 68 C15.86 68 29.72 68 44 68 C44 68.33 44 68.66 44 69 C29.48 69 14.96 69 0 69 C0 46.23 0 23.46 0 0 Z " fill="#2686E6" transform="translate(194,564)"/>
<path d="M0 0 C0.99 0.33 1.98 0.66 3 1 C1.96552734 2.03253906 1.96552734 2.03253906 0.91015625 3.0859375 C-1.13064199 5.1260169 -3.16289319 7.17427066 -5.19140625 9.2265625 C-6.31507226 10.35940665 -7.43877062 11.49221871 -8.5625 12.625 C-9.12646484 13.19734375 -9.69042969 13.7696875 -10.27148438 14.359375 C-13.04317074 17.14727006 -15.75012181 19.75925269 -19 22 C-19.66 21.67 -20.32 21.34 -21 21 C-14.07 14.07 -7.14 7.14 0 0 Z " fill="#3EBB1E" transform="translate(175,492)"/>
<path d="M0 0 C0.8203125 1.65625 0.8203125 1.65625 1 4 C-0.65198208 6.05741357 -2.20817182 7.7235456 -4.125 9.5 C-4.61226563 9.97308594 -5.09953125 10.44617188 -5.6015625 10.93359375 C-8.59582119 13.80840063 -11.72296204 16.45519397 -15 19 C-15.66 18.67 -16.32 18.34 -17 18 C-16.5560791 17.56131592 -16.1121582 17.12263184 -15.65478516 16.6706543 C-13.64222971 14.67890386 -11.6335838 12.68325526 -9.625 10.6875 C-8.92632812 9.99720703 -8.22765625 9.30691406 -7.5078125 8.59570312 C-6.8375 7.92861328 -6.1671875 7.26152344 -5.4765625 6.57421875 C-4.85861816 5.96151123 -4.24067383 5.34880371 -3.60400391 4.7175293 C-1.80710653 2.88670835 -1.80710653 2.88670835 0 0 Z " fill="#057BE5" transform="translate(293,487)"/>
<path d="M0 0 C0 0.33 0 0.66 0 1 C-2.31 1 -4.62 1 -7 1 C-7 1.99 -7 2.98 -7 4 C-7.66 4 -8.32 4 -9 4 C-9 4.66 -9 5.32 -9 6 C-14.75 4.25 -14.75 4.25 -17 2 C-11.35600642 -0.44064587 -6.02248522 -0.19289099 0 0 Z " fill="#3EBB21" transform="translate(245,355)"/>
<path d="M0 0 C0 3.92813189 -1.30317277 6.48065464 -3 10 C-3.7115625 10.69029297 -3.7115625 10.69029297 -4.4375 11.39453125 C-6.43555397 13.44753171 -7.44950021 15.61112206 -8.6875 18.1875 C-9.12449219 19.08855469 -9.56148438 19.98960937 -10.01171875 20.91796875 C-10.33785156 21.60503906 -10.66398437 22.29210937 -11 23 C-12 20 -12 20 -10.48828125 16.6015625 C-9.77344283 15.27039227 -9.04769431 13.94503692 -8.3125 12.625 C-7.78366211 11.635 -7.78366211 11.635 -7.24414062 10.625 C-5.14281197 6.76808233 -2.86757283 3.35305356 0 0 Z " fill="#39B91B" transform="translate(137,415)"/>
<path d="M0 0 C0.66 0.33 1.32 0.66 2 1 C-1.96 5.29 -5.92 9.58 -10 14 C-10.33 13.01 -10.66 12.02 -11 11 C-7.37 7.37 -3.74 3.74 0 0 Z " fill="#4BC02C" transform="translate(230,493)"/>
<path d="M0 0 C0.33 0 0.66 0 1 0 C1.87890625 6.15234375 1.87890625 6.15234375 2 8 C1.67 8.33 1.34 8.66 1 9 C0.92728259 11.35313555 0.91629132 13.70833668 0.9375 16.0625 C0.94652344 17.35285156 0.95554687 18.64320313 0.96484375 19.97265625 C0.97644531 20.97167969 0.98804688 21.97070312 1 23 C-1.42170546 19.24779234 -1.23492777 15.88060126 -1.1875 11.5 C-1.18105469 10.1903125 -1.17460938 8.880625 -1.16796875 7.53125 C-1.03780602 4.79480564 -0.82440789 2.58534313 0 0 Z " fill="#33B914" transform="translate(723,579)"/>
<path d="M0 0 C0 3 0 3 -1.8984375 5.26171875 C-2.71570313 6.06222656 -3.53296875 6.86273437 -4.375 7.6875 C-5.18710937 8.49574219 -5.99921875 9.30398438 -6.8359375 10.13671875 C-9 12 -9 12 -11 12 C-9.60609461 8.84280428 -7.96365028 6.7187347 -5.5 4.3125 C-4.8915625 3.71050781 -4.283125 3.10851562 -3.65625 2.48828125 C-2 1 -2 1 0 0 Z " fill="#3DBB1D" transform="translate(425,533)"/>
<path d="M0 0 C2.97 0 5.94 0 9 0 C10.66413655 3.3282731 9.81867406 6.99733973 9.5625 10.625 C9.51029297 11.42679688 9.45808594 12.22859375 9.40429688 13.0546875 C9.27451629 15.03679103 9.13790265 17.01844499 9 19 C8.34 18.67 7.68 18.34 7 18 C7.33 12.72 7.66 7.44 8 2 C5.36 1.67 2.72 1.34 0 1 C0 0.67 0 0.34 0 0 Z " fill="#2CB50D" transform="translate(851,551)"/>
<path d="M0 0 C0.66 0.33 1.32 0.66 2 1 C-6.261959 10.59453303 -6.261959 10.59453303 -11 14 C-9.61085525 9.70281047 -7.61968015 7.29312243 -4.375 4.1875 C-3.55773437 3.39730469 -2.74046875 2.60710937 -1.8984375 1.79296875 C-0.95871094 0.90544922 -0.95871094 0.90544922 0 0 Z " fill="#0475E3" transform="translate(428,393)"/>
<path d="M0 0 C0 3 0 3 -1.57421875 4.60546875 C-2.62029297 5.38857422 -2.62029297 5.38857422 -3.6875 6.1875 C-4.37199219 6.71730469 -5.05648437 7.24710937 -5.76171875 7.79296875 C-8.37464398 9.20203314 -10.07442819 9.2305617 -13 9 C-12.40316406 8.74476563 -11.80632812 8.48953125 -11.19140625 8.2265625 C-8.15933177 6.52946555 -6.5572396 4.18049709 -4.46484375 1.4609375 C-3 0 -3 0 0 0 Z " fill="#39B91A" transform="translate(188,461)"/>
<path d="M0 0 C1.5625 1.8125 1.5625 1.8125 3 4 C2.67 4.99 2.34 5.98 2 7 C1.67 6.67 1.34 6.34 1 6 C0.01 9.465 0.01 9.465 -1 13 C-1.33 13 -1.66 13 -2 13 C-2.19294408 8.17639811 -1.75747614 4.50353262 0 0 Z " fill="#36B81A" transform="translate(114,468)"/>
<path d="M0 0 C0 3.93169105 -1.39419615 5.16427228 -4 8 C-4.66 8 -5.32 8 -6 8 C-4.73058503 4.08597051 -3.48832306 2.20927127 0 0 Z " fill="#41BD22" transform="translate(875,556)"/>
<path d="M0 0 C0.66 0 1.32 0 2 0 C3.04644066 1.63790712 4.0398183 3.31008021 5 5 C5.98244845 6.34631825 6.97676564 7.68441297 8 9 C7.67 9.66 7.34 10.32 7 11 C6.01216806 9.92456217 5.03506057 8.83926783 4.0625 7.75 C3.51722656 7.14671875 2.97195313 6.5434375 2.41015625 5.921875 C0.93787201 3.91532695 0.42470811 2.42997551 0 0 Z " fill="#0A77E4" transform="translate(650,484)"/>
<path d="M0 0 C0.66 0.66 1.32 1.32 2 2 C-1.32307692 5.93846154 -1.32307692 5.93846154 -4.75 6.25 C-5.4925 6.1675 -6.235 6.085 -7 6 C-4.83312509 3.72478134 -2.54379491 1.84205838 0 0 Z " fill="#46BC26" transform="translate(557,609)"/>
<path d="M0 0 C0.66 0.33 1.32 0.66 2 1 C-0.37050084 3.62002725 -2.87276017 5.35819909 -6 7 C-6.99 7 -7.98 7 -9 7 C-7.87720538 6.01830524 -6.75168527 5.03972702 -5.625 4.0625 C-4.68527344 3.24458984 -4.68527344 3.24458984 -3.7265625 2.41015625 C-2 1 -2 1 0 0 Z " fill="#0676E4" transform="translate(575,417)"/>
<path d="M0 0 C0.66 0.33 1.32 0.66 2 1 C1.04882866 2.1725131 0.08882991 3.33787015 -0.875 4.5 C-1.40867188 5.1496875 -1.94234375 5.799375 -2.4921875 6.46875 C-2.98976562 6.9740625 -3.48734375 7.479375 -4 8 C-4.66 8 -5.32 8 -6 8 C-4.55746343 4.63408134 -2.66735273 2.48952921 0 0 Z " fill="#47C029" transform="translate(239,484)"/>
<path d="M0 0 C0.66 0.66 1.32 1.32 2 2 C0.35 3.32 -1.3 4.64 -3 6 C-3.66 5.34 -4.32 4.68 -5 4 C-3.35 2.68 -1.7 1.36 0 0 Z " fill="#1185E8" transform="translate(612,375)"/>
<path d="M0 0 C0.66 0 1.32 0 2 0 C1.34 1.65 0.68 3.3 0 5 C-1.98 5 -3.96 5 -6 5 C-5.195625 4.360625 -4.39125 3.72125 -3.5625 3.0625 C-1.7249496 1.59396498 -1.7249496 1.59396498 0 0 Z " fill="#0378E3" transform="translate(494,475)"/>
<path d="M0 0 C0.33 0.66 0.66 1.32 1 2 C-0.32 3.65 -1.64 5.3 -3 7 C-3.99 6.67 -4.98 6.34 -6 6 C-4.02 4.02 -2.04 2.04 0 0 Z " fill="#107FE7" transform="translate(319,461)"/>
</svg>
